<svg width="178" height="208" viewBox="0 0 178 208" fill="none" xmlns="http://www.w3.org/2000/svg">
<path d="M108.243 57.2622C90.4245 62.2563 77.2061 80.6159 77.2061 102.5C77.2061 125.456 91.7503 144.534 110.891 148.375C106.696 153.36 101.666 157.055 95.9548 158.967C93.4493 158.967 93.7738 156.2 91.684 156.199C89.8919 156.198 85.6397 158.962 84.0596 158.962C61.5286 158.962 43.2637 134.491 43.2637 104.305C43.2637 74.1185 61.5286 49.6477 84.0596 49.6477H97.2357C101.264 51.3033 104.958 53.9115 108.243 57.2622Z" fill="url(#paint0_linear_1128_229)"/>
<path d="M108.243 57.2622C90.4245 62.2563 77.2061 80.6159 77.2061 102.5C77.2061 125.456 91.7503 144.534 110.891 148.375C106.696 153.36 101.666 157.055 95.9548 158.967C93.4493 158.967 93.7738 156.2 91.684 156.199C89.8919 156.198 85.6397 158.962 84.0596 158.962C61.5286 158.962 43.2637 134.491 43.2637 104.305C43.2637 74.1185 61.5286 49.6477 84.0596 49.6477H97.2357C101.264 51.3033 104.958 53.9115 108.243 57.2622Z" fill="#202832" fill-opacity="0.42"/>
<path d="M77.0175 207.989C77.029 207.992 77.0406 207.996 77.0521 208C81.8052 208 86.0988 207.997 90.0632 207.994C93.4629 207.992 96.6204 207.99 99.6178 207.99C142.36 207.99 177.009 161.568 177.009 104.303C177.009 47.0385 142.36 0.616455 99.6178 0.616455H77.3917C120.134 0.616455 154.783 47.0385 154.783 104.303C154.783 161.568 120.134 207.99 77.3917 207.99C77.2669 207.99 77.1421 207.989 77.0175 207.989Z" fill="url(#paint1_linear_1128_229)"/>
<path d="M77.0175 207.989C77.029 207.992 77.0406 207.996 77.0521 208C81.8052 208 86.0988 207.997 90.0632 207.994C93.4629 207.992 96.6204 207.99 99.6178 207.99C142.36 207.99 177.009 161.568 177.009 104.303C177.009 47.0385 142.36 0.616455 99.6178 0.616455H77.3917C120.134 0.616455 154.783 47.0385 154.783 104.303C154.783 161.568 120.134 207.99 77.3917 207.99C77.2669 207.99 77.1421 207.989 77.0175 207.989Z" fill="#202832" fill-opacity="0.42"/>
<path d="M74.4434 0.690309C75.4216 0.641219 76.4045 0.616455 77.3917 0.616455H74.6222C74.5625 0.640963 74.5029 0.665581 74.4434 0.690309Z" fill="url(#paint2_linear_1128_229)"/>
<path d="M74.4434 0.690309C75.4216 0.641219 76.4045 0.616455 77.3917 0.616455H74.6222C74.5625 0.640963 74.5029 0.665581 74.4434 0.690309Z" fill="#202832" fill-opacity="0.42"/>
<path d="M73.2671 55.6497C74.9809 55.3556 76.728 55.204 78.5016 55.204C101.033 55.204 119.297 79.6748 119.297 109.861C119.297 131.416 96.8767 150.079 83.3477 158.977C122.244 163.144 136.57 134.186 136.57 104.305C136.57 74.1183 118.305 49.6475 95.7743 49.6475H82.5982C79.2409 51.0271 76.1165 53.0685 73.2671 55.6497Z" fill="url(#paint3_linear_1128_229)"/>
<path d="M73.2671 55.6497C74.9809 55.3556 76.728 55.204 78.5016 55.204C101.033 55.204 119.297 79.6748 119.297 109.861C119.297 131.416 96.8767 150.079 83.3477 158.977C122.244 163.144 136.57 134.186 136.57 104.305C136.57 74.1183 118.305 49.6475 95.7743 49.6475H82.5982C79.2409 51.0271 76.1165 53.0685 73.2671 55.6497Z" fill="#202832" fill-opacity="0.2"/>
<path fill-rule="evenodd" clip-rule="evenodd" d="M96.131 131.433C100.699 125.214 104.116 115.685 104.116 104.301C104.116 92.9172 100.699 83.3881 96.131 77.1693C91.5551 70.9406 86.832 69.0956 83.4137 69.0956C79.9955 69.0956 75.2724 70.9406 70.6965 77.1693C66.128 83.3881 62.7116 92.9172 62.7116 104.301C62.7116 115.685 66.128 125.214 70.6965 131.433C75.2724 137.662 79.9955 139.507 83.4137 139.507C86.832 139.507 91.5551 137.662 96.131 131.433ZM83.4137 158.954C105.588 158.954 123.564 134.485 123.564 104.301C123.564 74.1168 105.588 49.6477 83.4137 49.6477C61.2395 49.6477 43.2637 74.1168 43.2637 104.301C43.2637 134.485 61.2395 158.954 83.4137 158.954Z" fill="url(#paint4_radial_1128_229)"/>
<path fill-rule="evenodd" clip-rule="evenodd" d="M96.131 131.433C100.699 125.214 104.116 115.685 104.116 104.301C104.116 92.9172 100.699 83.3881 96.131 77.1693C91.5551 70.9406 86.832 69.0956 83.4137 69.0956C79.9955 69.0956 75.2724 70.9406 70.6965 77.1693C66.128 83.3881 62.7116 92.9172 62.7116 104.301C62.7116 115.685 66.128 125.214 70.6965 131.433C75.2724 137.662 79.9955 139.507 83.4137 139.507C86.832 139.507 91.5551 137.662 96.131 131.433ZM83.4137 158.954C105.588 158.954 123.564 134.485 123.564 104.301C123.564 74.1168 105.588 49.6477 83.4137 49.6477C61.2395 49.6477 43.2637 74.1168 43.2637 104.301C43.2637 134.485 61.2395 158.954 83.4137 158.954Z" fill="url(#paint5_angular_1128_229)" style="mix-blend-mode:screen"/>
<path fill-rule="evenodd" clip-rule="evenodd" d="M149.814 174.298C163.083 156.584 171.454 131.857 171.454 104.308C171.454 76.7587 163.083 52.0319 149.814 34.3181C136.547 16.6058 118.644 6.17275 99.3395 6.17275C80.0352 6.17275 62.1323 16.6058 48.8647 34.3181C35.596 52.0319 27.2245 76.7587 27.2245 104.308C27.2245 131.857 35.596 156.584 48.8647 174.298C62.1323 192.01 80.0352 202.443 99.3395 202.443C118.644 202.443 136.547 192.01 149.814 174.298ZM99.3395 208C142.236 208 177.011 161.575 177.011 104.308C177.011 47.0406 142.236 0.616211 99.3395 0.616211C56.4427 0.616211 21.668 47.0406 21.668 104.308C21.668 161.575 56.4427 208 99.3395 208Z" fill="url(#paint6_radial_1128_229)"/>
<path fill-rule="evenodd" clip-rule="evenodd" d="M149.814 174.298C163.083 156.584 171.454 131.857 171.454 104.308C171.454 76.7587 163.083 52.0319 149.814 34.3181C136.547 16.6058 118.644 6.17275 99.3395 6.17275C80.0352 6.17275 62.1323 16.6058 48.8647 34.3181C35.596 52.0319 27.2245 76.7587 27.2245 104.308C27.2245 131.857 35.596 156.584 48.8647 174.298C62.1323 192.01 80.0352 202.443 99.3395 202.443C118.644 202.443 136.547 192.01 149.814 174.298ZM99.3395 208C142.236 208 177.011 161.575 177.011 104.308C177.011 47.0406 142.236 0.616211 99.3395 0.616211C56.4427 0.616211 21.668 47.0406 21.668 104.308C21.668 161.575 56.4427 208 99.3395 208Z" fill="url(#paint7_angular_1128_229)" style="mix-blend-mode:screen"/>
<path d="M99.9918 207.988C99.9803 207.992 99.9687 207.996 99.9572 208C95.2041 208 90.9105 207.997 86.9461 207.994C83.5465 207.992 80.3889 207.99 77.3915 207.99C34.6493 207.99 0 161.567 0 104.303C0 47.0383 34.6493 0.616211 77.3915 0.616211H99.6177C56.8755 0.616211 22.2262 47.0383 22.2262 104.303C22.2262 161.567 56.8755 207.99 99.6177 207.99C99.7424 207.99 99.8672 207.989 99.9918 207.988Z" fill="url(#paint8_linear_1128_229)"/>
<path d="M99.9918 207.988C99.9803 207.992 99.9687 207.996 99.9572 208C95.2041 208 90.9105 207.997 86.9461 207.994C83.5465 207.992 80.3889 207.99 77.3915 207.99C34.6493 207.99 0 161.567 0 104.303C0 47.0383 34.6493 0.616211 77.3915 0.616211H99.6177C56.8755 0.616211 22.2262 47.0383 22.2262 104.303C22.2262 161.567 56.8755 207.99 99.6177 207.99C99.7424 207.99 99.8672 207.989 99.9918 207.988Z" fill="#202832" fill-opacity="0.2"/>
<path d="M102.566 0.690065C101.588 0.640975 100.605 0.616211 99.6177 0.616211H102.387C102.447 0.640719 102.506 0.665337 102.566 0.690065Z" fill="url(#paint9_linear_1128_229)"/>
<path d="M102.566 0.690065C101.588 0.640975 100.605 0.616211 99.6177 0.616211H102.387C102.447 0.640719 102.506 0.665337 102.566 0.690065Z" fill="#202832" fill-opacity="0.2"/>
<defs>
<linearGradient id="paint0_linear_1128_229" x1="111.419" y1="49.6477" x2="111.179" y2="153.63" gradientUnits="userSpaceOnUse">
<stop stop-color="#8EAAC5"/>
<stop offset="0.066468" stop-color="#ADE0D5"/>
<stop offset="0.11342" stop-color="#B0F1FC"/>
<stop offset="0.198563" stop-color="#94CAD8"/>
<stop offset="0.306859" stop-color="#A9E1E1"/>
<stop offset="0.343067" stop-color="#8FADC5"/>
<stop offset="0.484848" stop-color="#A3BDDF"/>
<stop offset="0.743629" stop-color="#98C8C7"/>
<stop offset="0.912967" stop-color="#ADEAEF"/>
<stop offset="1" stop-color="#97B0D1"/>
</linearGradient>
<linearGradient id="paint1_linear_1128_229" x1="177.81" y1="0.616455" x2="177.239" y2="197.874" gradientUnits="userSpaceOnUse">
<stop stop-color="#8EAAC5"/>
<stop offset="0.066468" stop-color="#ADE0D5"/>
<stop offset="0.11342" stop-color="#B0F1FC"/>
<stop offset="0.198563" stop-color="#94CAD8"/>
<stop offset="0.306859" stop-color="#A9E1E1"/>
<stop offset="0.343067" stop-color="#8FADC5"/>
<stop offset="0.484848" stop-color="#A3BDDF"/>
<stop offset="0.743629" stop-color="#98C8C7"/>
<stop offset="0.912967" stop-color="#ADEAEF"/>
<stop offset="1" stop-color="#97B0D1"/>
</linearGradient>
<linearGradient id="paint2_linear_1128_229" x1="177.81" y1="0.616455" x2="177.239" y2="197.874" gradientUnits="userSpaceOnUse">
<stop stop-color="#8EAAC5"/>
<stop offset="0.066468" stop-color="#ADE0D5"/>
<stop offset="0.11342" stop-color="#B0F1FC"/>
<stop offset="0.198563" stop-color="#94CAD8"/>
<stop offset="0.306859" stop-color="#A9E1E1"/>
<stop offset="0.343067" stop-color="#8FADC5"/>
<stop offset="0.484848" stop-color="#A3BDDF"/>
<stop offset="0.743629" stop-color="#98C8C7"/>
<stop offset="0.912967" stop-color="#ADEAEF"/>
<stop offset="1" stop-color="#97B0D1"/>
</linearGradient>
<linearGradient id="paint3_linear_1128_229" x1="137.064" y1="49.6475" x2="136.806" y2="154.021" gradientUnits="userSpaceOnUse">
<stop stop-color="#8EAAC5"/>
<stop offset="0.066468" stop-color="#ADE0D5"/>
<stop offset="0.11342" stop-color="#B0F1FC"/>
<stop offset="0.198563" stop-color="#94CAD8"/>
<stop offset="0.306859" stop-color="#A9E1E1"/>
<stop offset="0.343067" stop-color="#8FADC5"/>
<stop offset="0.484848" stop-color="#A3BDDF"/>
<stop offset="0.743629" stop-color="#98C8C7"/>
<stop offset="0.912967" stop-color="#ADEAEF"/>
<stop offset="1" stop-color="#97B0D1"/>
</linearGradient>
<radialGradient id="paint4_radial_1128_229" cx="0" cy="0" r="1" gradientUnits="userSpaceOnUse" gradientTransform="translate(51.3781 80.5176) rotate(37.8202) scale(81.1091 91.9276)">
<stop offset="0.0760668" stop-color="#97B0D1"/>
<stop offset="0.351413" stop-color="#AEEEFC"/>
<stop offset="0.634538" stop-color="#B1F4EC"/>
<stop offset="1" stop-color="#97B0D1"/>
</radialGradient>
<radialGradient id="paint5_angular_1128_229" cx="0" cy="0" r="1" gradientUnits="userSpaceOnUse" gradientTransform="translate(83.4137 104.301) rotate(90) scale(54.6534 40.1501)">
<stop offset="0.046875" stop-color="#94FFE5" stop-opacity="0.72"/>
<stop offset="0.244792" stop-color="#1E3C69"/>
<stop offset="0.421875" stop-color="#99FFE7" stop-opacity="0.72"/>
<stop offset="0.625" stop-color="#1E3C69"/>
<stop offset="0.802083" stop-color="#93FFE5" stop-opacity="0.72"/>
<stop offset="1" stop-color="#1E3C69"/>
</radialGradient>
<radialGradient id="paint6_radial_1128_229" cx="0" cy="0" r="1" gradientUnits="userSpaceOnUse" gradientTransform="translate(37.3656 59.1846) rotate(37.2817) scale(155.778 175.676)">
<stop offset="0.0760668" stop-color="#97B0D1"/>
<stop offset="0.351413" stop-color="#AEEEFC"/>
<stop offset="0.634538" stop-color="#B1F4EC"/>
<stop offset="1" stop-color="#97B0D1"/>
</radialGradient>
<radialGradient id="paint7_angular_1128_229" cx="0" cy="0" r="1" gradientUnits="userSpaceOnUse" gradientTransform="translate(99.3395 104.308) rotate(90) scale(103.692 77.6715)">
<stop offset="0.046875" stop-color="#94FFE5" stop-opacity="0.72"/>
<stop offset="0.244792" stop-color="#1E3C69"/>
<stop offset="0.421875" stop-color="#99FFE7" stop-opacity="0.72"/>
<stop offset="0.625" stop-color="#1E3C69"/>
<stop offset="0.802083" stop-color="#93FFE5" stop-opacity="0.72"/>
<stop offset="1" stop-color="#1E3C69"/>
</radialGradient>
<linearGradient id="paint8_linear_1128_229" x1="103.366" y1="0.616211" x2="102.796" y2="197.873" gradientUnits="userSpaceOnUse">
<stop stop-color="#8EAAC5"/>
<stop offset="0.066468" stop-color="#ADE0D5"/>
<stop offset="0.11342" stop-color="#B0F1FC"/>
<stop offset="0.198563" stop-color="#94CAD8"/>
<stop offset="0.306859" stop-color="#A9E1E1"/>
<stop offset="0.343067" stop-color="#8FADC5"/>
<stop offset="0.484848" stop-color="#A3BDDF"/>
<stop offset="0.743629" stop-color="#98C8C7"/>
<stop offset="0.912967" stop-color="#ADEAEF"/>
<stop offset="1" stop-color="#97B0D1"/>
</linearGradient>
<linearGradient id="paint9_linear_1128_229" x1="103.366" y1="0.616211" x2="102.796" y2="197.873" gradientUnits="userSpaceOnUse">
<stop stop-color="#8EAAC5"/>
<stop offset="0.066468" stop-color="#ADE0D5"/>
<stop offset="0.11342" stop-color="#B0F1FC"/>
<stop offset="0.198563" stop-color="#94CAD8"/>
<stop offset="0.306859" stop-color="#A9E1E1"/>
<stop offset="0.343067" stop-color="#8FADC5"/>
<stop offset="0.484848" stop-color="#A3BDDF"/>
<stop offset="0.743629" stop-color="#98C8C7"/>
<stop offset="0.912967" stop-color="#ADEAEF"/>
<stop offset="1" stop-color="#97B0D1"/>
</linearGradient>
</defs>
</svg>
